<svg xmlns="http://www.w3.org/2000/svg" viewBox="0 0 512 512" role="img" aria-labelledby="title desc">
  <title id="title">Dominican Hair Salon brand mark</title>
  <desc id="desc">A stylized salon emblem with Dominican red and blue color blocks behind a feminine profile.</desc>
  <defs>
    <clipPath id="circleClip">
      <circle cx="256" cy="206" r="144" />
    </clipPath>
    <linearGradient id="bgFade" x1="84" x2="428" y1="34" y2="378" gradientUnits="userSpaceOnUse">
      <stop stop-color="#f7f0e7" />
      <stop offset="1" stop-color="#efe3d6" />
    </linearGradient>
    <linearGradient id="bandFade" x1="256" x2="256" y1="136" y2="274" gradientUnits="userSpaceOnUse">
      <stop stop-color="#111214" stop-opacity="0" />
      <stop offset="0.52" stop-color="#323841" stop-opacity="0.56" />
      <stop offset="1" stop-color="#111214" stop-opacity="0" />
    </linearGradient>
    <filter id="shadow" x="0" y="0" width="512" height="512" color-interpolation-filters="sRGB">
      <feDropShadow dx="0" dy="18" stdDeviation="18" flood-color="#111214" flood-opacity="0.18" />
    </filter>
  </defs>

  <rect width="512" height="512" rx="88" fill="url(#bgFade)" />

  <g filter="url(#shadow)">
    <circle cx="256" cy="206" r="148" fill="#1a1b1f" opacity="0.08" />
    <g clip-path="url(#circleClip)">
      <rect x="112" y="62" width="144" height="144" fill="#0f56bc" />
      <rect x="256" y="62" width="144" height="144" fill="#e11f45" />
      <rect x="112" y="206" width="144" height="144" fill="#e11f45" />
      <rect x="256" y="206" width="144" height="144" fill="#0f56bc" />
      <rect x="112" y="142" width="288" height="128" fill="url(#bandFade)" />
    </g>
    <circle cx="256" cy="206" r="146" fill="none" stroke="#0e0f12" stroke-width="7" />

    <path
      d="M315 103c34 3 64 20 85 47 20 25 29 58 24 90-5 27-18 51-38 69-8 8-12 19-10 30 9 57-5 95-43 115-30 16-69 16-109-2-44-20-77-61-85-108-8-47 7-95 40-129 12-12 20-28 22-45 6-47 43-73 114-67z"
      fill="#0e0f12"
    />

    <path
      d="M252 110c7 34 18 58 32 72 9 9 20 15 35 19-17 22-26 46-26 72 0 19 5 39 15 57-10 17-28 28-48 28-31 0-57-25-57-57 0-11 3-21 9-30-21-18-33-42-36-71-3-38 14-73 45-96 9 0 20 2 31 6z"
      fill="#efbb86"
    />

    <path
      d="M219 188c6-7 16-11 27-11 9 0 19 3 26 8-11 5-22 8-33 8-8 0-15-2-20-5z"
      fill="#0e0f12"
    />

    <path
      d="M219 205c4 4 11 7 18 7 8 0 15-3 19-7-1 10-10 18-19 18-9 0-17-8-18-18z"
      fill="#0e0f12"
    />

    <path
      d="M199 204c-2 12 4 24 16 28 9 3 20 2 28-5 3 12 13 22 26 27-9 11-22 18-37 18-27 0-49-22-49-49 0-10 3-20 9-28 3 3 5 6 7 9z"
      fill="#efbb86"
    />

    <path
      d="M244 117c-18 15-30 39-31 64-1 23 7 46 24 61 3-1 6-2 10-2-13-15-19-35-17-55 2-26 14-48 30-68-5-1-11-1-16 0z"
      fill="#d1975e"
    />

    <path
      d="M296 171c-9 18-15 38-17 59-3 33 4 66 22 94"
      fill="none"
      stroke="#d1975e"
      stroke-linecap="round"
      stroke-width="4"
    />

    <path
      d="M303 149c18 11 31 27 39 47 9 25 7 54-6 77"
      fill="none"
      stroke="#0e0f12"
      stroke-linecap="round"
      stroke-width="6"
    />
  </g>
</svg>
